<svg width="60" height="25" viewBox="0 0 60 25" fill="none" xmlns="http://www.w3.org/2000/svg">
<path id="logo" fill-rule="evenodd" clip-rule="evenodd" d="M59.64 14.4H51.58C51.77 16.33 53.18 16.95 54.78 16.95C56.42 16.95 57.74 16.58 58.83 16V19.32C57.4468 20.1159 55.864 20.4977 54.27 20.42C50.26 20.42 47.44 17.92 47.44 12.94C47.44 8.74999 49.83 5.42 53.74 5.42C57.66 5.42 59.7 8.7 59.7 12.92C59.7 13.32 59.66 14.18 59.64 14.4ZM53.72 8.77999C52.69 8.77999 51.55 9.50999 51.55 11.36H55.8C55.8 9.50999 54.73 8.77999 53.72 8.77999ZM40.95 20.42C39.51 20.42 38.63 19.82 38.05 19.38L38.03 24.01L33.91 24.88V5.69H37.67L37.75 6.71C38.6221 5.88278 39.778 5.42114 40.98 5.42C43.88 5.42 46.6 8.01999 46.6 12.82C46.6 18.05 43.9 20.42 40.95 20.42ZM40 9.06999C39.05 9.06999 38.46 9.41 38.03 9.88L38.05 16C38.45 16.44 39.03 16.78 40 16.78C41.52 16.78 42.54 15.13 42.54 12.91C42.54 10.76 41.5 9.06999 40 9.06999ZM28.24 5.69H32.37V20.13H28.24V5.69ZM28.24 0.989995L32.37 0.119995V3.48L28.24 4.35999V0.999995V0.989995ZM23.92 10.34V20.13H19.8V5.69H23.5L23.62 6.91C24.62 5.14 26.69 5.5 27.24 5.69V9.47999C26.72 9.30999 24.95 9.05 23.92 10.34ZM15.37 15.06C15.37 17.49 17.97 16.74 18.49 16.52V19.88C17.94 20.18 16.95 20.42 15.6 20.42C15.0373 20.4364 14.4772 20.3382 13.9537 20.1313C13.4302 19.9244 12.9543 19.6132 12.5549 19.2166C12.1554 18.82 11.8409 18.3462 11.6303 17.8242C11.4197 17.3022 11.3176 16.7428 11.33 16.18L11.34 3.01L15.36 2.15V5.69H18.5V9.22H15.37V15.07V15.06ZM10.46 15.76C10.46 18.73 8.15 20.42 4.73 20.42C3.19532 20.4188 1.67725 20.1023 0.27 19.49V15.56C1.65 16.31 3.37 16.87 4.73 16.87C5.65 16.87 6.26 16.63 6.26 15.87C6.26 13.89 0 14.63 0 10.07C0 7.16 2.28 5.42 5.62 5.42C6.98 5.42 8.34 5.62 9.71 6.17V10.05C8.44396 9.38368 7.04035 9.0208 5.61 8.99C4.75 8.99 4.17 9.24 4.17 9.89C4.17 11.74 10.46 10.86 10.46 15.77V15.76Z" fill="white"/>
</svg>
